<svg width="500" height="500" viewBox="0 0 500 500" fill="none" xmlns="http://www.w3.org/2000/svg">
<path d="M209.567 332.295C204.899 332.295 197.563 331.891 192.562 331.28C183.075 330.119 179.197 327.817 175.93 326.792C172.48 325.71 167.584 323.338 163.693 320.68C160.453 318.466 157.783 315.788 155.024 313.237C151.843 310.296 149.622 306.415 146.764 302.94C144.425 300.095 142.684 297.03 140.949 293.662C138.913 289.708 136.565 286.629 135.033 283.362C133.484 280.061 132.283 275.825 131.665 272.35C131.032 268.789 129.836 265.216 129.319 257.886C128.66 248.547 129.615 234.221 130.233 228.207C130.64 224.248 132.271 221.165 133.595 217.898C134.893 214.697 136.345 211.376 137.979 208.109C139.814 204.842 141.448 202.395 142.261 200.767C142.671 199.948 143.075 199.14 143.491 197.696" stroke="black" stroke-width="20" stroke-linecap="round"/>
<path d="M142.267 192.802C140.848 190.978 138.401 186.096 136.767 180.789C135.493 176.647 134.522 173.04 133.705 169.565C132.717 165.359 132.686 159.58 131.971 154.692C130.402 143.979 135.109 137.775 137.875 132.452C139.709 128.921 142.255 126.126 145.822 124.994C149.229 123.913 155.886 126.31 162.133 127.335C165.997 127.968 170.79 129.577 175.189 130.8C178.49 131.719 183.027 133.04 187.425 134.064C190.804 134.851 194.455 136.099 198.031 137.023C201.722 137.976 205.064 139.158 208.839 140.791C209.763 141.201 210.57 141.605 211.39 141.914C212.21 142.223 213.018 142.425 215.685 143.857" stroke="black" stroke-width="20" stroke-linecap="round"/>
<path d="M215.685 143.856C219.325 143.856 227.089 143.453 238.074 143.144C241.577 143.045 244.624 142.633 248.087 142.532C250.358 142.466 261.467 142.021 277.472 142.122C285.659 142.174 288.882 143.648 292.15 144.364C295.417 144.872 297.864 145.894 299.491 146.301C300.311 146.506 301.119 146.708 301.951 146.916" stroke="black" stroke-width="20" stroke-linecap="round"/>
<path d="M301.951 146.916C304.796 146.916 309.268 146.108 314.677 144.982C320.37 143.797 326.399 141.825 331.603 139.482C338.228 136.499 343.126 134.887 346.601 133.462C349.981 132.076 353.123 130.605 356.39 129.788C359.657 128.971 362.105 128.359 363.53 128.457C366.83 128.684 366.595 136.478 368.936 148.806C370.271 155.843 370.878 159.947 371.594 163.725C371.698 166.261 371.9 168.525 372.206 172.171C372.31 175.01 372.31 179.856 371.698 185.46" stroke="black" stroke-width="20" stroke-linecap="round"/>
<path d="M371.698 185.46C372.707 187.693 375.968 190.954 378.113 194.316C381.266 199.259 383.922 201.967 385.965 205.127C388.473 209.004 390.248 212.159 392.39 216.035C394.408 219.689 395.143 223.172 396.268 227.048C397.466 231.172 398.41 235.2 399.126 242.114C400.767 257.967 398.214 262.524 397.397 266.715C396.431 271.674 392.916 277.623 391.181 280.79C389.503 283.852 386.602 286.397 382.319 290.573C378.329 294.463 374.977 298.021 372.218 300.472C369.226 303.128 365.8 304.959 362.839 307.202C358.909 310.177 354.787 311.481 351.117 313.525C346.005 316.37 342.551 317.196 338.776 318.829C334.425 320.712 329.299 323.926 322.982 326.676C317.649 328.997 314.408 330.656 310.633 331.68C309.709 331.885 308.901 332.087 308.082 332.292C307.262 332.497 306.454 332.699 303.787 333.519" stroke="black" stroke-width="20" stroke-linecap="round"/>
<path d="M298.28 331.072C298.684 333.708 299.504 339.404 300.113 343.598C300.817 348.454 301.951 351.653 302.967 354.92C303.953 358.094 304.802 361.846 305.111 366.844C305.349 370.685 306.638 374.694 306.947 379.692C307.172 383.335 308.069 386.93 308.678 390.607C309.293 399.338 309.697 411.611 310.413 420.127C310.517 426.196 310.517 437.503 310.517 449.152" stroke="black" stroke-width="20" stroke-linecap="round"/>
<path d="M193.66 452.823C193.862 451.403 194.676 448.148 194.985 441.226C195.241 435.491 195.899 429.794 196.615 421.981C197.068 417.039 196.719 408.136 196.214 403.458C195.71 398.781 194.7 398.579 192.666 398.475C183.686 398.016 180.017 398.983 173.614 399.491C155.588 400.921 152.277 398.579 149.01 397.255C145.743 395.93 142.488 393.085 140.031 390.326C137.601 387.595 136.566 382.892 134.525 378.909C132.89 375.717 131.671 372.283 130.037 369.016C128.241 365.423 126.777 361.271 125.143 358.004C123.421 354.56 120.255 351.078 116.281 346.587C113.443 343.38 111.077 340.873 107.003 337C104.15 334.289 101.282 334.137 100.768 333.118C99.0388 329.69 110.233 332.699 113.5 333.008C116.829 333.323 120.022 334.534 123.289 335.351C127.476 336.398 132.258 339.221 135.525 340.347C139.021 341.551 142.047 344.115 145.314 346.358C148.784 348.739 151.433 351.861 153.883 354.311C156.342 356.77 157.759 360.218 159.493 364.195C161.448 368.676 163.265 371.843 166.116 374.908C168.67 377.654 180.31 377.569 187.53 376.453C190.944 375.925 194.052 373.703 196.609 371.36C199.345 368.853 200.586 364.942 201.611 361.674C202.635 358.409 203.853 355.153 204.569 351.684C204.673 349.45 204.875 347.395 205.18 344.758C205.284 342.929 205.284 340.102 205.284 337.19" stroke="black" stroke-width="20" stroke-linecap="round"/>
<path d="M189.323 457.112C182.817 455.724 171.6 451.055 164.113 448.475C156.296 445.782 149.166 442.165 141.678 438.898C134.174 435.624 129.059 429.097 123.444 423.482C117.592 417.63 108.981 410.421 100.554 403.158C90.1517 394.192 84.1909 386.108 78.8067 378.62C73.7232 371.551 69.6928 362.748 65.9491 354.784C62.2108 346.831 59.4011 337.51 56.3655 329.546C53.1801 321.188 50.5116 311.795 49.1165 304.307C47.7027 296.72 45.3798 289.36 43.7393 280.716C41.2484 267.591 41.1734 259.916 40.928 207.041C40.8498 190.178 44.4263 182.798 47.462 175.311C50.4366 167.974 53.7646 160.364 57.5083 152.877C61.349 145.195 66.3838 137.93 70.3588 130.442C74.6813 122.301 82.2559 115.496 88.3482 108.24C93.7745 101.777 101.886 96.7912 110.537 91.1757C118.238 86.1771 124.32 80.891 131.576 76.916C138.595 73.0708 145.352 68.2718 152.839 65.6919C160.481 63.059 167.786 59.859 175.274 57.279C183.09 54.5857 190.22 50.9694 197.708 49.0976C205.099 47.2497 212.655 46.763 235.271 46.0549C262.526 45.2016 303.793 45.8096 311.281 47.4501C318.627 49.0596 326.227 50.016 333.715 53.0516C340.924 55.9744 348.662 57.0266 356.149 60.2936C363.822 63.6414 370.17 68.6924 377.181 73.1442C384.742 77.9452 391.202 82.7138 397.982 87.1656C404.626 91.5286 410.356 99.0627 419.939 108.646C426.27 114.977 430.014 121.497 434.444 127.82C439.19 134.594 443.081 142.529 447.07 150.016C450.793 157.004 453.373 164.963 456.885 172.45C460.189 179.493 460.86 187.397 463.896 194.885C466.819 202.094 467.871 209.831 468.579 219.646C469.987 239.162 468.825 270.123 466.953 277.611C465.081 285.098 462.291 292.557 459.942 300.045C457.632 307.409 455.28 314.991 451.536 322.479C447.88 329.791 445.465 337.426 441.953 345.144C437.789 354.294 435.173 364.066 431.906 371.554C428.559 379.226 423.508 385.575 419.757 392.817C414.353 403.251 405.28 408.009 398.501 412.461C391.566 417.014 385.65 423.433 378.871 430.212C372.781 436.302 366.02 441.66 359.009 446.343C351.223 451.545 344.988 455.682 337.977 458.507C330.49 460.842 321.642 462.72 313.237 462.026C309.921 461.332 308.533 459.944 307.102 458.514" stroke="black" stroke-width="20" stroke-linecap="round"/>
</svg>
