<svg width="500" height="500" viewBox="0 0 500 500" fill="none" xmlns="http://www.w3.org/2000/svg">
<path d="M98.3397 45.6243C114.49 48.1061 131.963 50.6129 144.615 51.648C177.611 54.3475 185.191 49.7898 192.468 48.3306C197.541 47.3134 203.075 47.707 218.134 47.0834C253.33 45.6261 278.327 46.4599 282.468 45.8363C293.596 44.1604 322.576 44.3772 344.787 43.342C374.326 41.9655 380.992 45.2003 391.786 46.2416C404.719 47.4894 410.923 51.436 417.789 54.5476C425.73 58.1466 430.878 64.3065 437.332 69.3013C443.047 73.7242 445.444 81.3424 447.739 88.208C448.366 90.0838 449.186 92.1427 449.61 117.896C450.034 143.65 450.034 193.036 450.24 219.301C450.458 247.218 451.281 253.436 451.487 261.118C451.616 265.957 452.528 287.37 452.322 318.125C452.215 334.221 448.787 368.734 447.34 389.811C446.836 397.147 441.728 403.105 435.511 410.594C430.602 416.508 423.046 418.919 416.386 421.419C409.232 424.105 403.091 426.826 396.432 428.491C388.512 430.47 377.749 433.061 368.595 434.521C353.779 436.882 346.147 437.626 310.909 438.68C296.218 439.119 288.753 440.133 258.273 440.756C229.444 441.346 173.468 440.968 143.81 440.762C107.916 440.513 98.7887 438.898 87.1591 437.857C78.9847 437.125 74.669 427.275 71.9502 421.039C69.0772 414.449 66.7621 407.744 64.6731 401.085C62.2808 393.458 61.7735 384.049 60.7197 345.3C60.2025 326.285 58.0321 306.327 56.9783 294.473C56.1745 285.431 54.6897 278.042 53.6546 269.53C51.616 252.767 50.9484 218.029 49.7075 196.56C49.4634 192.338 48.454 164.776 48.6598 125.086C48.7638 105.036 52.5946 97.6301 56.7538 88.4761C59.7653 81.8482 64.642 76.0047 71.0834 69.1392C78.1371 61.6211 83.3491 56.8735 89.5848 53.1196C91.256 52.284 92.9022 51.4609 94.5734 50.8311C96.2446 50.2013 97.8908 49.7898 102.081 45.6243" stroke="black" stroke-width="20" stroke-linecap="round"/>
<path d="M136.926 204.745C139.224 205.658 143.82 211.168 146.381 216.494C147.383 218.579 147.073 221.342 148.679 229.129C152.331 246.84 153.538 260.788 153.766 265.73C154.07 272.3 154.922 284.031 155.036 297.057C155.123 306.958 156.071 312.458 156.421 323.522C156.907 338.929 156.085 360.23 155.5 363.926C155.207 365.776 154.237 367.394 152.742 368.546C152.001 369.117 151.018 369.242 150.091 369.017C145.643 367.938 144.775 359.593 140.518 347.488C139.367 344.214 138.324 339.521 136.019 331.928C130.632 314.181 133.244 298.67 132.199 291.873C131.344 286.317 131.624 280.217 130.932 272.524C129.854 260.537 130.925 251.14 131.271 242.201C132.488 210.771 133.002 207.984 133.804 206.714C134.166 206.142 135.293 206.586 135.877 207.16C138.493 209.729 139.224 216.013 140.844 220.765C142.524 225.694 141.771 233.317 142.92 249.188C144.908 276.647 143.848 281.781 144.422 292.122C144.768 317.552 145.46 321.705 145.806 326.979C145.924 330.883 145.924 337.278 145.924 343.868" stroke="black" stroke-width="20" stroke-linecap="round"/>
<path d="M127.236 127.916C129.534 126.995 133.216 126.074 136.912 126.642C138.897 126.947 140.38 128.829 141.532 130.67C143.587 133.954 143.155 143.074 141.664 149.473C141.091 151.93 138.781 153.518 136.826 154.671C134.851 155.835 131.409 155.602 127.838 155.145C126.268 154.944 125.408 153.774 124.824 152.847C122.738 149.539 122.169 145.469 122.155 141.316C122.133 134.602 127 132.539 128.149 131.041C129.245 129.612 132.295 129.992 135.175 130.22C136.471 130.323 137.369 130.906 138.182 131.712C139.928 133.443 140.387 136.208 140.044 138.855C139.707 141.462 136.94 143.136 134.406 144.288C132.413 145.195 130.018 145.219 127.485 144.877C125.189 144.566 123.553 142.686 121.827 141.537C119.998 140.321 119.394 138.076 119.162 136.235C118.93 134.395 120.307 132.311 121.688 130.238C122.867 128.469 124.689 127.459 127.443 126.767C129.244 126.314 132.025 126.531 133.894 127.102C137.019 128.057 138.532 130.906 140.03 132.747C142.635 135.948 141.771 142.188 140.394 146.59C139.187 150.447 135.099 151.906 131.403 153.404C129.614 154.129 127.021 154.217 124.142 153.761C121.587 153.355 120.321 150.764 119.169 149.269C118.473 147.545 118.238 145.005 118.58 142.24C118.923 141.073 119.608 140.388 120.314 139.682" stroke="black" stroke-width="20" stroke-linecap="round"/>
<path d="M224.83 201.976C224.83 202.89 226.428 217.522 228.851 240.006C230.587 256.115 231.059 267.689 231.748 275.431C232.459 283.423 233.592 290.309 233.942 297.583C234.015 299.102 234.284 300.013 234.402 309.962C234.52 319.912 234.52 338.87 234.634 349.093C234.758 360.235 235.212 365.74 235.212 371.976C235.212 374.953 237.053 361.213 240.85 340.03C242.874 328.734 242.826 320.847 243.629 313.562C245.119 300.039 245.594 292.247 246.968 282.66C250.031 261.289 251.824 253.237 254.81 244.229C256.562 238.944 258.274 233.843 261.957 223.71C266.375 211.552 269.584 208.455 273.149 203.495C276.495 198.84 281.102 195.996 287.099 193.103C292.6 190.449 298.849 189.296 312.681 189.168C320.359 189.097 325.621 193.421 330.137 195.394C335.738 197.84 340.627 203.568 344.673 208.188C348.833 212.939 351.48 217.646 355.283 223.291C361.105 231.93 364.396 242.287 366.714 251.091C368.711 258.674 369.947 265.17 371.445 270.364C373.174 276.359 374.099 285.228 374.449 293.195C374.78 300.741 375.719 308.983 375.03 315.237C374.24 322.413 373.643 332.032 373.068 342.085C371.769 364.819 371.345 368.536 369.268 372.004C368.763 372.848 367.662 373.16 366.278 373.395C364.894 373.63 363.067 373.63 362.125 372.831C357.693 369.067 359.343 361.199 359.222 352.897C359.147 347.767 360.256 343.66 360.606 329.62C360.837 320.347 360.727 312.513 359.917 307.09C358.978 300.8 358.651 294.752 358.187 290.471C357.672 285.717 355.647 281.823 354.498 277.442C352.619 270.277 352.657 265.903 351.497 262.093C350.224 257.91 349.653 254.137 348.729 250.441C347.805 246.745 346.427 242.605 343.89 238.1C341.642 234.105 338.135 227.406 335.353 221.948C332.919 217.174 329.359 213.992 326.472 211.099C323.589 208.208 311.903 208.205 303.984 208.78C298.165 209.202 294.986 211.888 291.29 213.736C287.675 215.543 284.604 219.031 281.597 223.876C279.127 227.854 277.669 231.489 276.17 235.186C274.62 239.008 273.059 243.256 271.325 246.952C269.294 251.281 269.127 258.013 267.864 262.754C266.79 266.788 265.902 270.942 265.092 274.753C264.153 279.17 263.369 283.858 262.784 288.364C262.142 293.312 261.749 299.321 261.4 304.74C261.122 309.048 260.365 313.164 260.015 320.881C259.807 325.468 258.288 329.083 257.939 333.468C257.584 337.919 256.669 345.197 255.98 350.775C255.27 356.525 254.828 364.383 253.904 368.079C252.965 371.835 251.595 374.544 250.792 376.157C249.953 377.843 246.992 377.783 244.573 377.326C242.402 376.916 241.22 374.101 239.721 372.26C234.033 365.271 239.129 348.505 239.939 342.393C240.778 336.062 241.441 331.437 243.165 316.818C244.322 307.004 245.359 297.784 246.169 288.312C247.823 268.964 245.594 265.211 244.906 261.401C244.015 256.473 243.296 249.998 242.711 245.021C242.182 240.516 241.677 235.449 241.213 231.178C240.775 227.144 238.908 223.682 237.984 219.986C237.06 216.29 236.139 212.608 234.527 208.911C232.45 205.215 230.374 202.675 228.65 201.637C227.612 201.284 226.242 201.284 224.83 201.976Z" stroke="black" stroke-width="20" stroke-linecap="round"/>
</svg>
