<svg width="500" height="500" viewBox="0 0 500 500" fill="none" xmlns="http://www.w3.org/2000/svg">
<path d="M34.3481 431.678C34.6058 420.583 36.1697 415.114 45.148 408.639C36.4519 384.228 32.6095 367.401 31.4681 320.079C20.0054 291.422 23.1733 287.204 31.3458 276.323L31.4681 276.16C32.9083 261.04 40.8282 256 53.7879 256C63.868 245.2 76.8279 245.2 87.6276 253.12C87.6276 221.44 96.9873 204.161 120.747 179.681C120.747 35.6819 128.667 45.0417 220.339 99.7614C260.607 88.3859 307.166 96.7436 355.465 122.081C462.025 85.3613 477.145 94.7212 466.344 240.16C488.664 308.559 472.825 362.559 427.465 389.919C435.51 402.391 438.307 411.474 437.545 430.958H414.505C408.745 435.998 397.696 440.21 387.145 433.118C375.614 440.529 369.158 440.118 357.625 433.118C347.463 439.898 336.026 435.998 332.091 431.678H34.3481Z" fill="white"/>
<path d="M162.507 194.081C220.107 169.601 261.146 171.761 245.306 94.0015L217.227 98.3215C135.328 35.8125 112.63 49.2015 121.467 176.081L104.188 198.401C130.827 217.84 149.09 199.783 162.507 194.081Z" fill="#FF7E5F"/>
<path d="M280.586 202.72C283.276 192.641 271.226 164.561 306.506 101.921L355.465 122.081C466.283 72.8156 481.696 111.391 466.344 240.88C479.598 281.006 477.575 300.583 470.664 334.479C430.344 345.279 406.584 329.151 387.145 334.479C305.785 356.778 275.546 293.44 267.626 264.64C260.062 237.132 276.743 217.12 280.586 202.72Z" fill="#FF7E5F"/>
<path d="M194.186 112.001C159.627 130.001 154.587 146.561 131.547 171.761L131.547 171.756C131.547 125.679 131.548 91.121 143.787 78.8815C152.546 70.1224 171.147 89.6814 194.186 112.001Z" fill="#FFA1A9"/>
<path d="M87.6276 253.12C76.8279 245.2 63.868 245.2 53.7879 256C40.8282 256 32.9083 261.04 31.4681 276.16C23.2052 287.163 19.9484 291.28 31.4681 320.079C32.6095 367.401 36.4519 384.228 45.148 408.639C36.1697 415.114 34.6058 420.583 34.3481 431.678H332.091M87.6276 253.12C100.786 251.987 109.228 256 110.667 267.52C122.758 275.657 121.648 291.448 125.067 322.239C128.086 349.421 135.353 362.779 148.107 384.159M87.6276 253.12C87.6276 221.44 96.9873 204.161 120.747 179.681M427.465 389.919C472.825 362.559 488.664 308.559 466.344 240.16C477.145 94.7212 462.025 85.3613 355.465 122.081C307.166 96.7436 260.607 88.3859 220.339 99.7614M427.465 389.919C435.51 402.391 438.307 411.474 437.545 430.958H414.505M427.465 389.919C412.507 369.128 390.354 366.125 369.145 368.319C327.386 372.639 320.906 416.558 332.091 431.678M332.091 431.678C336.026 435.998 347.463 439.898 357.625 433.118M357.625 433.118C369.158 440.118 375.614 440.529 387.145 433.118M357.625 433.118C354.746 430.238 352.551 420.209 354.025 413.679M387.145 433.118C397.696 440.21 408.745 435.998 414.505 430.958M387.145 433.118C381.385 425.918 381.385 413.679 384.265 409.359M414.505 430.958C418.825 425.918 420.265 418.718 419.545 413.678M120.747 179.681C123.952 177.054 133.077 171.551 136.587 168.881C158.626 131.61 187.375 109.074 220.339 99.7614M120.747 179.681C120.747 35.6819 128.667 45.0417 220.339 99.7614" stroke="black" stroke-width="6" stroke-linecap="round"/>
<path d="M182.667 304.24C191.306 314.319 209.306 315.039 220.106 306.4M220.106 306.4C228.026 320.079 253.946 329.439 276.266 320.079M220.106 306.4V287.68" stroke="black" stroke-width="6" stroke-linecap="round"/>
<path d="M243.146 277.6C241.706 268.24 213.768 264.282 210.747 266.8C202.107 274 212.651 292.835 220.827 294.879C226.586 296.32 244.029 283.337 243.146 277.6Z" fill="black"/>
<path d="M430.344 209.2C412.159 175.523 399.077 161.988 370.585 148.001C401.053 127.898 419.545 120.127 435.384 131.441C445.464 138.641 442.482 182.62 430.344 209.2Z" fill="#FFA1A9"/>
<circle cx="173.307" cy="239.44" r="25.1998" fill="#353535"/>
<circle cx="314.425" cy="263.92" r="25.1998" fill="#353535"/>
<circle cx="183.387" cy="232.24" r="6.47995" fill="white"/>
<circle cx="327.385" cy="256.72" r="6.47995" fill="white"/>
<ellipse cx="44.428" cy="294.16" rx="7.19994" ry="9.35992" fill="#FFDADA"/>
<ellipse cx="61.7078" cy="276.88" rx="7.19994" ry="9.35992" fill="#FFDADA"/>
<ellipse cx="86.1872" cy="276.88" rx="7.19994" ry="9.35992" fill="#FFDADA"/>
<ellipse cx="103.468" cy="294.16" rx="7.19994" ry="9.35992" fill="#FFDADA"/>
<path d="M94.8275 314.399C94.8275 321.588 87.7459 325.119 74.3273 325.119C60.9087 325.119 53.0679 321.923 53.0679 314.734C53.0679 307.545 60.9087 300.64 74.3273 300.64C87.7459 300.64 94.8275 307.21 94.8275 314.399Z" fill="#FFDADA"/>
</svg>
