<svg width="500" height="500" viewBox="0 0 500 500" fill="none" xmlns="http://www.w3.org/2000/svg">
<path d="M242.623 59.8803C253.947 59.8803 278.751 60.8228 287.569 62.9647C298.864 65.7084 309.196 68.9052 323.019 73.6676C332.994 77.1044 343.496 81.7571 351.122 84.3846C359.082 87.1275 366.344 91.7531 373.97 97.9363C382.177 104.591 391.106 112.687 395.875 119.592C400.959 126.952 407.299 132.194 413.247 137.449C419.082 142.604 420.151 152.186 423.728 160.047C427.914 169.245 428.262 180.26 430.868 190.977C433.259 200.81 437.287 210.248 439.443 218.594C440.572 222.963 440.628 227.884 442.056 245.355C445.553 288.133 442.071 319.275 441.121 323.788C439.428 331.831 433.06 340.195 426.855 348.306C421.064 355.877 409.784 368.241 399.966 378.294C391.603 386.858 380.71 396.858 373.784 403.762C366.801 410.724 357.376 415.422 349.515 421.141C341.218 427.178 333.101 430.187 325.475 433.764C316.281 438.077 304.541 443.039 293.36 447.801C285.365 451.207 251.962 451.15 229.807 449.729C220.459 449.13 212.207 444.496 203.389 442.354C192.094 439.61 184.589 437.356 174.358 436.399C164.219 435.451 155.087 431.644 146.976 429.502C138.421 427.242 128.441 421.191 119.844 415.472C108.904 408.193 97.4819 393.602 90.806 386.441C82.2823 377.297 77.0045 366.47 71.2854 357.888C64.8922 348.294 61.7535 340.281 59.8471 332.42C57.5873 323.101 55.556 312.692 53.1855 303.624C50.6282 293.841 49.8441 286.017 48.6588 270.381C44.9824 221.882 51.729 210.362 55.3061 198.674C58.1004 189.544 59.3545 179.889 62.6817 171.057C66.0684 162.067 70.2929 154.642 83.5803 139.676C97.272 124.256 102.651 114.658 109.548 106.09C120.015 93.0877 127.87 89.4112 136.68 84.4132C144.38 80.0456 153.088 75.6168 160.014 70.1333C166.944 64.6464 178.306 61.3369 188.324 57.0386C193.072 55.1394 197.384 53.6971 208.016 52.9831C216.762 52.7404 232.313 52.7404 248.335 52.7404" stroke="black" stroke-width="20" stroke-linecap="round"/>
<path d="M250.916 54.384C243.865 59.4191 233.713 67.5339 220.913 77.8117C212.761 84.3573 209.723 89.4775 206.522 94.0465C202.403 99.9248 196.249 111.056 192.334 119.196C189.433 125.227 189.117 131.014 187.942 139.615C186.434 150.652 185.409 159.381 184.224 167.136C183.109 174.434 183.717 181 183.211 193.567C182.018 223.162 183.373 244.156 184.548 250.696C189.108 276.07 188.773 285.652 190.799 293.448C192.769 301.027 194.507 314.667 197.212 325.685C200.225 337.957 201.943 345.445 203.63 351.534C206.14 360.594 210.372 371.765 217.793 386.622C222.472 395.991 226.237 403.515 230.471 409.958C233.837 415.079 236.712 420.758 241.945 429.526C247.866 439.348 250.571 442.722 252.086 445.25C252.932 446.44 253.935 447.443 258.007 450.502" stroke="black" stroke-width="20" stroke-linecap="round"/>
<path d="M252.942 51.3447C256.974 59.0847 267.733 75.8818 274.536 85.7645C280.655 94.6539 284.327 101.614 291.581 115.119C296.142 123.61 298.855 132.007 302.735 142.315C306.124 151.317 308.986 157.679 314.214 166.802C318.716 174.66 319.461 181.993 321.655 188.259C323.917 194.722 326.209 204.929 327.065 212.406C328.748 227.105 328.579 252.241 329.091 262.701C329.882 278.867 329.268 301.193 328.083 308.138C326.743 315.988 326.229 321.475 325.55 327.219C324.608 335.194 322.176 341.737 319.983 347.988C317.79 354.238 315.085 360.986 312.557 366.563C309.588 373.115 304.974 380.883 301.246 388.172C297.034 396.407 293.141 401.509 289.428 406.919C284.767 413.711 278.634 421.771 273.898 427.348C268.148 433.27 264.106 437.981 259.882 442.382C258.696 443.401 257.359 444.404 252.942 447.463" stroke="black" stroke-width="20" stroke-linecap="round"/>
<path d="M64.0005 178.994C78.7207 183.34 109.893 192.833 120.688 195.026C132.347 197.395 143.974 197.554 158 200.259C167.515 202.094 178.095 205.659 187.901 207.356C194.319 208.466 199.734 208.708 214.976 209.215C228.206 209.654 252.618 209.387 266.862 209.053C290.648 208.494 300.679 205.01 311.828 202.979C322.661 201.005 334.435 196.906 342.904 193.866C355.09 189.493 360.471 187.443 365.881 185.083C371.295 182.721 380.024 178.69 389.005 173.944C395.705 170.403 400.995 167.526 406.238 163.813C407.428 162.795 408.431 161.792 409.449 160.607C410.467 159.421 411.47 158.084 414.53 155.693" stroke="black" stroke-width="20" stroke-linecap="round"/>
<path d="M61.9741 330.958C66.6648 331.961 78.1431 334.666 92.1237 337.36C119.149 342.57 130.155 342.77 141.79 343.282C161.155 344.133 185.531 343.459 197.333 342.274C215.192 340.48 222.671 340.42 244.68 339.235C258.909 338.468 284.672 339.062 298.936 338.895C319.629 338.653 329.714 336.712 337.342 335.856C343.734 335.139 351.677 332.315 359.625 331.804C366.383 331.369 371.615 328.263 386.609 322.539C396.579 318.733 405.371 316.106 413.152 312.904C419.518 310.285 425.978 306.319 432.573 303.614C434.103 302.936 435.44 302.267 436.797 301.588C438.155 300.909 439.492 300.241 441.883 297.526" stroke="black" stroke-width="20" stroke-linecap="round"/>
</svg>
